# xmcd
#
# Track frame offsets:
#	150
#	11478
#	25134
#	47875
#	64493
#	77452
#	91753
#	109328
#	131432
#	146478
#	165962
#	183027
#	199586
#	220264
#
# Disc length: 3217 seconds
#
# Revision: 0
# Processed by: cddbd v1.5.2PL0 Copyright (c) Steve Scherf et al.
# Submitted via: dBpowerAMP V4.0
#
DISCID=b10c8f0e
DTITLE=Dimitri - La Bouteille
DYEAR=2009
DGENRE=Blues
TTITLE0=01- J'suis Bien
TTITLE1=02- Le Cirque
TTITLE2=03- 110 Kilos
TTITLE3=04- Je comprends
TTITLE4=05- Mon portefeuille, mes lunettes, ma montre et mes clés
TTITLE5=06- Quand tu m'aimeras
TTITLE6=07- Le même Blues
TTITLE7=08- Monsieur II
TTITLE8=09- Stress
TTITLE9=10- Mouchette
TTITLE10=11- Le revers de la guindaille
TTITLE11=12- Le marché de Guilvinec
TTITLE12=13- Permis
TTITLE13=14- Les nuits de festivals
EXTD=
EXTT0=
EXTT1=
EXTT2=
EXTT3=
EXTT4=
EXTT5=
EXTT6=
EXTT7=
EXTT8=
EXTT9=
EXTT10=
EXTT11=
EXTT12=
EXTT13=
PLAYORDER=
